<svg width="28" height="28" viewBox="0 0 28 28" fill="none" xmlns="http://www.w3.org/2000/svg">
<g opacity="0.8">
<path d="M17.5584 5.83317C18.6979 6.0555 19.7452 6.6128 20.5661 7.43376C21.3871 8.25472 21.9444 9.30198 22.1667 10.4415L17.5584 5.83317ZM17.5584 1.1665C19.9259 1.42951 22.1336 2.48971 23.819 4.17301C25.5044 5.85632 26.5674 8.06268 26.8334 10.4298L17.5584 1.1665ZM25.6667 19.7398V23.2398C25.6681 23.5648 25.6015 23.8864 25.4713 24.1841C25.3412 24.4818 25.1502 24.749 24.9108 24.9687C24.6714 25.1883 24.3887 25.3556 24.0809 25.4597C23.7731 25.5638 23.447 25.6024 23.1234 25.5732C19.5334 25.1831 16.0849 23.9563 13.0551 21.9915C10.2362 20.2003 7.84629 17.8104 6.05506 14.9915C4.08337 11.9479 2.85635 8.48266 2.4734 4.8765C2.44424 4.55388 2.48259 4.22872 2.58598 3.92173C2.68938 3.61474 2.85556 3.33264 3.07396 3.0934C3.29235 2.85415 3.55817 2.663 3.85449 2.53211C4.1508 2.40123 4.47113 2.33348 4.79506 2.33317H8.29507C8.86126 2.3276 9.41016 2.5281 9.83945 2.89729C10.2688 3.26649 10.5492 3.77919 10.6284 4.33984C10.7761 5.45991 11.0501 6.55969 11.4451 7.61817C11.602 8.03575 11.636 8.48957 11.543 8.92586C11.4499 9.36216 11.2337 9.76263 10.9201 10.0798L9.4384 11.5615C11.0992 14.4823 13.5176 16.9007 16.4384 18.5615L17.9201 17.0798C18.2373 16.7662 18.6377 16.55 19.074 16.4569C19.5103 16.3639 19.9642 16.3979 20.3817 16.5548C21.4402 16.9498 22.54 17.2238 23.6601 17.3715C24.2268 17.4515 24.7444 17.7369 25.1144 18.1736C25.4843 18.6103 25.6809 19.1677 25.6667 19.7398Z" stroke="#333333" stroke-width="2" stroke-linecap="round" stroke-linejoin="round"/>
</g>
</svg>
